<svg width="471" height="426" viewBox="0 0 471 426" fill="none" xmlns="http://www.w3.org/2000/svg">
<path d="M107.272 127.117L61.7026 57.479L23.8082 319.331L0.43324 319.362L43.3803 22.6539L66.7553 22.6221L119.139 102.451L107.272 127.117ZM246.083 319.029L222.708 319.061L185.387 64.5361L126.908 189.991L100.983 190.026L179.38 22.4692L202.755 22.4374L246.083 319.029Z" fill="black"/>
<path d="M80.9346 85.0176L101.039 74.7748L128.659 117.188L116.192 141.205L80.9346 85.0176Z" fill="black"/>
<path d="M238.895 46.069L250.977 132.222L309.475 199.427L310.008 230.683L229.566 136.895L212.749 22.6258C212.749 22.6258 228.873 21.518 330.505 23.6503C432.137 25.7827 470.667 121.554 470.731 168.907C458.205 300.038 358.339 322.547 309.972 317.409L244.323 237.178L238.226 195.555L319.323 293.983C421.827 300.23 449.626 190.237 449.59 163.986C439.072 72.6169 364.945 48.9089 330.535 45.9994L238.895 46.069Z" fill="black"/>
</svg>
