<svg width="938" height="476" viewBox="0 0 938 476" fill="none" xmlns="http://www.w3.org/2000/svg">
<path d="M50.2 413.9C50.2 420.233 47.9 425.167 43.3 428.7C38.7 432.233 32.5 434 24.7 434C20.7 434 17 433.7 13.6 433.1C10.2 432.5 7.36667 431.667 5.1 430.6V422C7.5 423.067 10.4667 424.033 14 424.9C17.6 425.767 21.3 426.2 25.1 426.2C30.4333 426.2 34.4333 425.167 37.1 423.1C39.8333 421.033 41.2 418.233 41.2 414.7C41.2 412.367 40.7 410.4 39.7 408.8C38.7 407.2 36.9667 405.733 34.5 404.4C32.1 403 28.7333 401.533 24.4 400C18.3333 397.8 13.7333 395.1 10.6 391.9C7.53333 388.7 6 384.333 6 378.8C6 375 6.96667 371.767 8.9 369.1C10.8333 366.367 13.5 364.267 16.9 362.8C20.3667 361.333 24.3333 360.6 28.8 360.6C32.7333 360.6 36.3333 360.967 39.6 361.7C42.8667 362.433 45.8333 363.4 48.5 364.6L45.7 372.3C43.2333 371.233 40.5333 370.333 37.6 369.6C34.7333 368.867 31.7333 368.5 28.6 368.5C24.1333 368.5 20.7667 369.467 18.5 371.4C16.2333 373.267 15.1 375.767 15.1 378.9C15.1 381.3 15.6 383.3 16.6 384.9C17.6 386.5 19.2333 387.933 21.5 389.2C23.7667 390.467 26.8333 391.833 30.7 393.3C34.9 394.833 38.4333 396.5 41.3 398.3C44.2333 400.033 46.4333 402.133 47.9 404.6C49.4333 407.067 50.2 410.167 50.2 413.9ZM84.0828 378.4C88.6828 378.4 92.6161 379.4 95.8828 381.4C99.2161 383.4 101.749 386.233 103.483 389.9C105.283 393.5 106.183 397.733 106.183 402.6V407.9H69.4828C69.6161 413.967 71.1495 418.6 74.0828 421.8C77.0828 424.933 81.2495 426.5 86.5828 426.5C89.9828 426.5 92.9828 426.2 95.5828 425.6C98.2495 424.933 100.983 424 103.783 422.8V430.5C101.049 431.7 98.3495 432.567 95.6828 433.1C93.0161 433.7 89.8495 434 86.1828 434C81.1161 434 76.6161 432.967 72.6828 430.9C68.8161 428.833 65.7828 425.767 63.5828 421.7C61.4495 417.567 60.3828 412.533 60.3828 406.6C60.3828 400.733 61.3495 395.7 63.2828 391.5C65.2828 387.3 68.0495 384.067 71.5828 381.8C75.1828 379.533 79.3495 378.4 84.0828 378.4ZM83.9828 385.6C79.7828 385.6 76.4495 386.967 73.9828 389.7C71.5828 392.367 70.1495 396.1 69.6828 400.9H96.9828C96.9161 396.367 95.8495 392.7 93.7828 389.9C91.7161 387.033 88.4495 385.6 83.9828 385.6ZM128.628 357V375.5C128.628 377.767 128.561 379.9 128.428 381.9C128.361 383.833 128.261 385.367 128.128 386.5H128.628C130.161 384.233 132.261 382.333 134.928 380.8C137.595 379.267 141.028 378.5 145.228 378.5C151.895 378.5 157.228 380.833 161.228 385.5C165.295 390.1 167.328 397 167.328 406.2C167.328 415.4 165.295 422.333 161.228 427C157.161 431.667 151.828 434 145.228 434C141.028 434 137.595 433.233 134.928 431.7C132.261 430.167 130.161 428.333 128.628 426.2H127.928L126.128 433H119.828V357H128.628ZM143.728 385.8C138.061 385.8 134.128 387.433 131.928 390.7C129.728 393.967 128.628 399.033 128.628 405.9V406.3C128.628 412.9 129.695 417.967 131.828 421.5C134.028 424.967 138.061 426.7 143.928 426.7C148.728 426.7 152.295 424.933 154.628 421.4C157.028 417.867 158.228 412.767 158.228 406.1C158.228 392.567 153.395 385.8 143.728 385.8ZM201.652 378.5C208.185 378.5 213.018 379.933 216.152 382.8C219.285 385.667 220.852 390.233 220.852 396.5V433H214.452L212.752 425.4H212.352C210.018 428.333 207.552 430.5 204.952 431.9C202.418 433.3 198.885 434 194.352 434C189.485 434 185.452 432.733 182.252 430.2C179.052 427.6 177.452 423.567 177.452 418.1C177.452 412.767 179.552 408.667 183.752 405.8C187.952 402.867 194.418 401.267 203.152 401L212.252 400.7V397.5C212.252 393.033 211.285 389.933 209.352 388.2C207.418 386.467 204.685 385.6 201.152 385.6C198.352 385.6 195.685 386.033 193.152 386.9C190.618 387.7 188.252 388.633 186.052 389.7L183.352 383.1C185.685 381.833 188.452 380.767 191.652 379.9C194.852 378.967 198.185 378.5 201.652 378.5ZM212.152 406.8L204.252 407.1C197.585 407.367 192.952 408.433 190.352 410.3C187.818 412.167 186.552 414.8 186.552 418.2C186.552 421.2 187.452 423.4 189.252 424.8C191.118 426.2 193.485 426.9 196.352 426.9C200.885 426.9 204.652 425.667 207.652 423.2C210.652 420.667 212.152 416.8 212.152 411.6V406.8ZM272.306 418.2C272.306 423.4 270.373 427.333 266.506 430C262.64 432.667 257.44 434 250.906 434C247.173 434 243.94 433.7 241.206 433.1C238.54 432.5 236.173 431.667 234.106 430.6V422.6C236.24 423.667 238.806 424.667 241.806 425.6C244.873 426.467 247.973 426.9 251.106 426.9C255.573 426.9 258.806 426.2 260.806 424.8C262.806 423.333 263.806 421.4 263.806 419C263.806 417.667 263.44 416.467 262.706 415.4C261.973 414.333 260.64 413.267 258.706 412.2C256.84 411.133 254.14 409.933 250.606 408.6C247.14 407.267 244.173 405.933 241.706 404.6C239.24 403.267 237.34 401.667 236.006 399.8C234.673 397.933 234.006 395.533 234.006 392.6C234.006 388.067 235.84 384.567 239.506 382.1C243.24 379.633 248.106 378.4 254.106 378.4C257.373 378.4 260.406 378.733 263.206 379.4C266.073 380 268.74 380.867 271.206 382L268.206 389C265.94 388.067 263.573 387.267 261.106 386.6C258.64 385.933 256.106 385.6 253.506 385.6C249.906 385.6 247.14 386.2 245.206 387.4C243.34 388.533 242.406 390.1 242.406 392.1C242.406 393.567 242.84 394.833 243.706 395.9C244.573 396.9 246.006 397.9 248.006 398.9C250.073 399.833 252.806 400.967 256.206 402.3C259.606 403.567 262.506 404.867 264.906 406.2C267.306 407.533 269.14 409.167 270.406 411.1C271.673 412.967 272.306 415.333 272.306 418.2ZM303.158 426.8C304.491 426.8 305.858 426.7 307.258 426.5C308.658 426.233 309.791 425.967 310.658 425.7V432.4C309.724 432.867 308.391 433.233 306.658 433.5C304.924 433.833 303.258 434 301.658 434C298.858 434 296.258 433.533 293.858 432.6C291.524 431.6 289.624 429.9 288.158 427.5C286.691 425.1 285.958 421.733 285.958 417.4V386.2H278.358V382L286.058 378.5L289.558 367.1H294.758V379.4H310.258V386.2H294.758V417.2C294.758 420.467 295.524 422.9 297.058 424.5C298.658 426.033 300.691 426.8 303.158 426.8ZM325.891 359.3C327.224 359.3 328.391 359.767 329.391 360.7C330.457 361.567 330.991 362.967 330.991 364.9C330.991 366.767 330.457 368.167 329.391 369.1C328.391 370.033 327.224 370.5 325.891 370.5C324.424 370.5 323.191 370.033 322.191 369.1C321.191 368.167 320.691 366.767 320.691 364.9C320.691 362.967 321.191 361.567 322.191 360.7C323.191 359.767 324.424 359.3 325.891 359.3ZM330.191 379.4V433H321.391V379.4H330.191ZM367.472 378.5C374.005 378.5 378.839 379.933 381.972 382.8C385.105 385.667 386.672 390.233 386.672 396.5V433H380.272L378.572 425.4H378.172C375.839 428.333 373.372 430.5 370.772 431.9C368.239 433.3 364.705 434 360.172 434C355.305 434 351.272 432.733 348.072 430.2C344.872 427.6 343.272 423.567 343.272 418.1C343.272 412.767 345.372 408.667 349.572 405.8C353.772 402.867 360.239 401.267 368.972 401L378.072 400.7V397.5C378.072 393.033 377.105 389.933 375.172 388.2C373.239 386.467 370.505 385.6 366.972 385.6C364.172 385.6 361.505 386.033 358.972 386.9C356.439 387.7 354.072 388.633 351.872 389.7L349.172 383.1C351.505 381.833 354.272 380.767 357.472 379.9C360.672 378.967 364.005 378.5 367.472 378.5ZM377.972 406.8L370.072 407.1C363.405 407.367 358.772 408.433 356.172 410.3C353.639 412.167 352.372 414.8 352.372 418.2C352.372 421.2 353.272 423.4 355.072 424.8C356.939 426.2 359.305 426.9 362.172 426.9C366.705 426.9 370.472 425.667 373.472 423.2C376.472 420.667 377.972 416.8 377.972 411.6V406.8ZM429.027 378.4C435.427 378.4 440.26 379.967 443.527 383.1C446.793 386.167 448.427 391.167 448.427 398.1V433H439.727V398.7C439.727 390.1 435.727 385.8 427.727 385.8C421.793 385.8 417.693 387.467 415.427 390.8C413.16 394.133 412.027 398.933 412.027 405.2V433H403.227V379.4H410.327L411.627 386.7H412.127C413.86 383.9 416.26 381.833 419.327 380.5C422.393 379.1 425.627 378.4 429.027 378.4ZM523.622 433L500.122 370.4H499.722C499.922 372.467 500.089 375.267 500.222 378.8C500.355 382.267 500.422 385.9 500.422 389.7V433H492.122V361.6H505.422L527.422 420.1H527.822L550.222 361.6H563.422V433H554.522V389.1C554.522 385.633 554.589 382.2 554.722 378.8C554.922 375.4 555.089 372.633 555.222 370.5H554.822L531.022 433H523.622ZM602.345 378.4C606.945 378.4 610.878 379.4 614.145 381.4C617.478 383.4 620.011 386.233 621.745 389.9C623.545 393.5 624.445 397.733 624.445 402.6V407.9H587.745C587.878 413.967 589.411 418.6 592.345 421.8C595.345 424.933 599.511 426.5 604.845 426.5C608.245 426.5 611.245 426.2 613.845 425.6C616.511 424.933 619.245 424 622.045 422.8V430.5C619.311 431.7 616.611 432.567 613.945 433.1C611.278 433.7 608.111 434 604.445 434C599.378 434 594.878 432.967 590.945 430.9C587.078 428.833 584.045 425.767 581.845 421.7C579.711 417.567 578.645 412.533 578.645 406.6C578.645 400.733 579.611 395.7 581.545 391.5C583.545 387.3 586.311 384.067 589.845 381.8C593.445 379.533 597.611 378.4 602.345 378.4ZM602.245 385.6C598.045 385.6 594.711 386.967 592.245 389.7C589.845 392.367 588.411 396.1 587.945 400.9H615.245C615.178 396.367 614.111 392.7 612.045 389.9C609.978 387.033 606.711 385.6 602.245 385.6ZM646.89 433H638.09V357H646.89V433ZM684.571 378.4C689.171 378.4 693.104 379.4 696.371 381.4C699.704 383.4 702.238 386.233 703.971 389.9C705.771 393.5 706.671 397.733 706.671 402.6V407.9H669.971C670.104 413.967 671.638 418.6 674.571 421.8C677.571 424.933 681.738 426.5 687.071 426.5C690.471 426.5 693.471 426.2 696.071 425.6C698.738 424.933 701.471 424 704.271 422.8V430.5C701.538 431.7 698.838 432.567 696.171 433.1C693.504 433.7 690.338 434 686.671 434C681.604 434 677.104 432.967 673.171 430.9C669.304 428.833 666.271 425.767 664.071 421.7C661.938 417.567 660.871 412.533 660.871 406.6C660.871 400.733 661.838 395.7 663.771 391.5C665.771 387.3 668.538 384.067 672.071 381.8C675.671 379.533 679.838 378.4 684.571 378.4ZM684.471 385.6C680.271 385.6 676.938 386.967 674.471 389.7C672.071 392.367 670.638 396.1 670.171 400.9H697.471C697.404 396.367 696.338 392.7 694.271 389.9C692.204 387.033 688.938 385.6 684.471 385.6ZM746.116 378.4C752.516 378.4 757.35 379.967 760.616 383.1C763.883 386.167 765.516 391.167 765.516 398.1V433H756.816V398.7C756.816 390.1 752.816 385.8 744.816 385.8C738.883 385.8 734.783 387.467 732.516 390.8C730.25 394.133 729.116 398.933 729.116 405.2V433H720.316V379.4H727.416L728.716 386.7H729.216C730.95 383.9 733.35 381.833 736.416 380.5C739.483 379.1 742.716 378.4 746.116 378.4ZM801.133 434C794.466 434 789.133 431.7 785.133 427.1C781.133 422.433 779.133 415.5 779.133 406.3C779.133 397.1 781.133 390.167 785.133 385.5C789.199 380.767 794.566 378.4 801.233 378.4C805.366 378.4 808.733 379.167 811.333 380.7C813.999 382.233 816.166 384.1 817.833 386.3H818.433C818.366 385.433 818.233 384.167 818.033 382.5C817.899 380.767 817.833 379.4 817.833 378.4V357H826.633V433H819.533L818.233 425.8H817.833C816.233 428.067 814.099 430 811.433 431.6C808.766 433.2 805.333 434 801.133 434ZM802.533 426.7C808.199 426.7 812.166 425.167 814.433 422.1C816.766 418.967 817.933 414.267 817.933 408V406.4C817.933 399.733 816.833 394.633 814.633 391.1C812.433 387.5 808.366 385.7 802.433 385.7C797.699 385.7 794.133 387.6 791.733 391.4C789.399 395.133 788.233 400.167 788.233 406.5C788.233 412.9 789.399 417.867 791.733 421.4C794.133 424.933 797.733 426.7 802.533 426.7ZM864.356 378.4C868.956 378.4 872.89 379.4 876.156 381.4C879.49 383.4 882.023 386.233 883.756 389.9C885.556 393.5 886.456 397.733 886.456 402.6V407.9H849.756C849.89 413.967 851.423 418.6 854.356 421.8C857.356 424.933 861.523 426.5 866.856 426.5C870.256 426.5 873.256 426.2 875.856 425.6C878.523 424.933 881.256 424 884.056 422.8V430.5C881.323 431.7 878.623 432.567 875.956 433.1C873.29 433.7 870.123 434 866.456 434C861.39 434 856.89 432.967 852.956 430.9C849.09 428.833 846.056 425.767 843.856 421.7C841.723 417.567 840.656 412.533 840.656 406.6C840.656 400.733 841.623 395.7 843.556 391.5C845.556 387.3 848.323 384.067 851.856 381.8C855.456 379.533 859.623 378.4 864.356 378.4ZM864.256 385.6C860.056 385.6 856.723 386.967 854.256 389.7C851.856 392.367 850.423 396.1 849.956 400.9H877.256C877.19 396.367 876.123 392.7 874.056 389.9C871.99 387.033 868.723 385.6 864.256 385.6ZM933.725 433H894.525V427.2L923.325 386.2H896.225V379.4H933.025V386L904.625 426.2H933.725V433Z" fill="black"/>
<path d="M211.95 182.8C211.95 182.8 210.25 182.8 206.85 182.8C203.45 182.8 199.058 182.375 193.675 181.525C188.575 180.392 182.908 178.55 176.675 176C170.725 173.45 164.917 169.767 159.25 164.95C153.867 160.133 149.192 153.9 145.225 146.25C141.258 138.6 138.85 128.967 138 117.35V88.45C138.85 77.1167 141.258 67.625 145.225 59.975C149.192 52.0417 153.867 45.6667 159.25 40.85C164.917 36.0333 170.725 32.35 176.675 29.8C182.908 27.25 188.575 25.55 193.675 24.7C199.058 23.5667 203.45 23 206.85 23C210.25 23 211.95 23 211.95 23H331.8L308.425 45.95H211.95C199.2 45.1 189.425 47.225 182.625 52.325C175.825 57.1417 170.867 62.6667 167.75 68.9C164.067 76.2667 161.942 84.625 161.375 93.975V111.825C161.942 121.175 164.067 129.533 167.75 136.9C170.867 143.133 175.825 148.8 182.625 153.9C189.425 158.717 199.2 160.7 211.95 159.85H282.075L259.125 182.8H211.95ZM274.85 128.825C274.85 128.825 276.55 128.825 279.95 128.825C283.35 128.825 287.6 129.392 292.7 130.525C297.8 131.375 303.467 133.075 309.7 135.625C315.933 137.892 321.742 141.575 327.125 146.675C332.508 151.492 337.183 157.725 341.15 165.375C345.117 173.025 347.525 182.658 348.375 194.275V245.7C348.092 255.05 346.817 263.267 344.55 270.35C342.567 277.15 339.733 283.1 336.05 288.2C332.65 293.3 328.683 297.55 324.15 300.95C319.9 304.35 315.508 307.042 310.975 309.025C300.208 314.125 288.167 316.675 274.85 316.675H155L178.375 293.725H274.425C286.892 294.575 296.667 292.592 303.75 287.775C310.833 282.675 315.933 277.008 319.05 270.775C322.733 263.408 324.858 255.05 325.425 245.7V199.375C325.425 198.242 325 194.983 324.15 189.6C323.3 183.933 321.175 178.267 317.775 172.6C314.375 166.65 309.275 161.55 302.475 157.3C295.958 152.767 286.75 150.925 274.85 151.775H204.3L227.25 128.4L274.85 128.825Z" fill="black"/>
<path d="M542 23L560 57.941L605.5 127.324L617.5 102.366L565 23H542Z" fill="black"/>
<path d="M678 23L599.5 189.718H625L684 64.9292L721 319H744L701 23H678Z" fill="black"/>
<path d="M542 23L560 57.941L605.5 127.324L617.5 102.366L565 23H542Z" stroke="black"/>
<path d="M678 23L599.5 189.718H625L684 64.9292L721 319H744L701 23H678Z" stroke="black"/>
<path d="M455.1 126.9L409.625 57.2L371.375 319H348L391.35 22.35H414.725L467 102.25L455.1 126.9ZM593.65 319H570.275L533.3 64.425L474.65 189.8H448.725L527.35 22.35H550.725L593.65 319Z" fill="black"/>
</svg>
